<svg data-v-0dd9719b="" version="1.0" xmlns="http://www.w3.org/2000/svg" xmlns:xlink="http://www.w3.org/1999/xlink" width="100%" height="100%" viewBox="0 0 340.000000 250.000000" preserveAspectRatio="xMidYMid meet" color-interpolation-filters="sRGB" style="margin: auto;"> <rect data-v-0dd9719b="" x="0" y="0" width="100%" height="100%" fill="#fff" fill-opacity="0" class="background"></rect> <!----> <g data-v-0dd9719b="" fill="#50bcb6" class="bordersvg b-d1" transform="translate(84.0357437133789,73.68060111999512)"><path fill-opacity="0" stroke="#50bcb6" stroke-width="3" d="M 92.63880157470703 26.052690505981445 A 51.319400787353516 51.319400787353516 0 1 0 92.63880157470703 76.58611106872559"></path> <g transform="translate(10,26.052690505981445)"><g><rect data-gra="graph-name-bg" stroke-width="2" class="i-icon-bg" x="0" y="0" width="165.27760314941406" height="50.53342056274414" fill-opacity="0"></rect> <!----> <!----> </g> <g transform="translate(10,3)"><g data-gra="path-name" fill-rule="" class="tp-name"><g transform="scale(1)"><g><path d="M41.05-7.52C42.77-9.97 38.74-12.41 37.22-10.16 35.84-8.38 33.86-6.8 31.81-5.74 29.3-4.49 26.6-3.83 24.16-3.83 15.05-3.83 7.33-11.48 7.33-21.52 7.33-31.09 13.07-36.83 21.19-38.08 26.99-38.74 32.21-38.02 36.7-33.26 38.54-31.28 42.11-33.99 40.13-36.23 34.91-41.71 28.18-43.63 20.46-42.57 10.3-40.99 2.57-32.41 2.57-21.58 2.57-8.51 12.74 0.73 24.02 0.73 27.19 0.73 30.76-0.2 33.92-1.65 36.76-3.04 39.27-5.02 41.05-7.52ZM58.56-32.8C52.23-30.36 48.53-24.22 48.4-17.56 48.2-11.09 50.77-5.48 55.79-2.05 58.56-0.07 62.13 0.79 65.29 0.79 69.19 0.79 74.07-1.39 75.99-5.21L75.99-2.05C75.99-0.59 76.84 0.33 78.36 0.33 79.81 0.33 80.8-0.59 80.8-2.05L80.8-31.35C80.8-32.74 79.81-33.73 78.36-33.73 76.84-33.73 75.99-32.74 75.99-31.35L75.99-28.84C73.61-32.74 69.32-33.92 65.56-33.99 63.05-34.06 60.67-33.73 58.5-32.74ZM64.83-3.76C62.39-3.96 60.01-4.75 58.03-6.27 54.47-9.24 53.08-13.2 53.22-17.49 53.28-19.21 53.61-20.99 54.21-22.37 56.05-26.99 60.81-29.5 65.49-29.44 71.43-29.17 75.99-25.81 75.99-19.27L75.99-14.06C75.66-7.46 70.9-3.76 64.83-3.76ZM105.9-28.78C108.28-28.78 108.28-32.8 105.9-32.8L99.57-32.8 99.57-34.19C99.57-39.27 105.51-40.79 108.21-38.28 110.19-36.56 113.23-39.67 110.92-41.65 104.78-46.4 94.75-42.7 94.75-34.25L94.75-32.8 91.25-32.8C88.68-32.8 88.61-28.78 91.19-28.78L94.75-28.78 94.75-1.85C94.75 1.06 99.57 1.06 99.57-1.85L99.57-28.78ZM135.56-33.46C132.32-34.32 128.76-34.39 125.66-33.46 113.38-30.03 110.28-14.85 117.41-5.48 120.51-1.58 125.66 0.4 130.81 0.4 135.1 0.46 139.52-0.73 142.55-3.56 145.13-6.2 141.7-8.91 139.39-6.8 136.81-4.82 133.64-4.03 130.61-4.03 124.01-4.03 119.39-8.51 118.53-13.93L144.6-13.93C147.31-13.93 147.97-15.51 147.83-16.96L147.83-16.9C147.7-25.34 143.08-31.42 135.62-33.46ZM127.11-29.11C129.35-29.77 132.06-29.77 134.24-29.17L134.17-29.17C139.32-27.85 142.75-23.56 143.21-17.95L118.33-17.95C118.73-23.3 121.83-27.72 127.11-29.11Z" transform="translate(-2.569999933242798, 43.7434196472168)"></path></g> <!----> <!----> <!----> <!----> <!----> <!----> <!----></g></g> <!----></g></g></g><defs v-gra="od"></defs></svg>